# xmcd
#
# Track frame offsets: 
#        150
#        22491
#        46662
#        65191
#        83149
#        106981
#        128096
#        150421
#        176312
#        203877
#
# Disc length: 3048 seconds
#
# Revision: 0
# Processed by: cddbd v1.5.2PL0 Copyright (c) Steve Scherf et al.
# Submitted via: ExactAudioCopy v1.0b3
#
DISCID=800be60a
DTITLE=Manh Quynh - Tinh Ca Xuan
DYEAR=1997
DGENRE=
TTITLE0=Xuan dep lam sao
TTITLE1=Mua Xuan cua Me
TTITLE2=Mua Xuan do co em
TTITLE3=Phien gac dem Xuan
TTITLE4=Toi chua co mua Xuan
TTITLE5=Luu My Linh - Buc tam thu
TTITLE6=Mai van con Xuan
TTITLE7=Xuan nay con khong ve
TTITLE8=Mua Xuan hoa dao no
TTITLE9=Chuyen buon ngay Xuan
EXTD=
EXTT0=
EXTT1=
EXTT2=
EXTT3=
EXTT4=
EXTT5=
EXTT6=
EXTT7=
EXTT8=
EXTT9=
PLAYORDER=
